<svg width="258" height="762" viewBox="0 0 258 762" fill="none" xmlns="http://www.w3.org/2000/svg">
<path fill-rule="evenodd" clip-rule="evenodd" d="M116.01 0.110352H116.638H253.468V2.69237H117.266L2.58201 148.86V300.902H0V148.414V147.968L0.275319 147.617L115.622 0.604442L116.01 0.110352ZM172.043 35.1786H172.667H257.771V37.7606H173.291L125.189 98.4001L124.801 98.8888H124.177H72.3532L34.4267 146.701V679.04L98.0824 759.287H152.545V761.869H97.4586H96.8348L96.4472 761.381L32.1243 680.292L31.8447 679.94V679.49V146.251V145.801L32.1243 145.448L70.718 96.7955L71.1057 96.3068H71.7294H123.554L171.655 35.6673L172.043 35.1786ZM45.186 202.335L74.1489 170.506V210.854L45.186 242.683V202.335ZM74.1489 116.083L45.186 147.912V188.26L74.1489 156.431V116.083ZM45.1877 256.854L74.1506 225.032V265.38L45.1877 297.209V256.854ZM74.1506 279.558L45.1877 311.387V351.735L74.1506 319.906V279.558ZM45.1877 365.907L74.1506 334.085V374.433L45.1877 406.262V365.907ZM74.1506 388.611L45.1877 420.432V460.787L74.1506 428.958V388.611ZM45.1877 474.96L74.1506 443.138V483.486L45.1877 515.307V474.96Z" fill="#5B5B5B" fill-opacity="0.4"/>
</svg>
