<svg width="300" height="758" viewBox="0 0 300 758" fill="none" xmlns="http://www.w3.org/2000/svg">
<path fill-rule="evenodd" clip-rule="evenodd" d="M219.58 0.110352H220.151L220.535 0.532694L299.664 87.5304L300 87.8998V88.3991V178.637H297.418V88.8984L219.009 2.69237H125.714V0.110352H219.58ZM28.9353 755.543V758.001H169.525L298.59 615.923V228.827H296.358V614.902L238.167 678.968H193.03H193.024H160.173L143.721 697.07H0.139648V699.528H144.648L161.1 681.426H190.785L153.841 722.095H113.069V724.553H154.768L193.951 681.426H235.928L168.597 755.543H28.9353ZM286.72 288.153L257.757 319.982V360.329L286.72 328.5V288.153ZM257.757 265.559L286.72 233.73V274.078L257.757 305.907V265.559ZM286.722 342.679L257.759 374.501V414.856L286.722 383.027V342.679ZM257.759 429.034L286.722 397.205V437.552L257.759 469.381V429.034ZM286.722 451.731L257.759 483.553V523.908L286.722 492.079V451.731ZM257.759 538.079L286.722 506.257V546.605L257.759 578.434V538.079ZM286.722 560.784L257.759 592.605V632.953L286.722 601.132V560.784Z" fill="#5B5B5B" fill-opacity="0.4"/>
</svg>
